<?xml version="1.0" standalone="no"?>
<!DOCTYPE svg PUBLIC "-//W3C//DTD SVG 20010904//EN"
 "http://www.w3.org/TR/2001/REC-SVG-20010904/DTD/svg10.dtd">
<svg version="1.0" xmlns="http://www.w3.org/2000/svg"
 width="16.000000pt" height="16.000000pt" viewBox="0 0 16.000000 16.000000"
 preserveAspectRatio="xMidYMid meet">
<metadata>
Created by potrace 1.11, written by Peter Selinger 2001-2013
</metadata>
<g transform="translate(0.000000,16.000000) scale(0.005333,-0.005333)"
fill="#000000" stroke="none">
<path d="M1462 2978 c-5 -5 -16 -10 -23 -11 -8 -2 -20 -6 -26 -10 -7 -5 -17
-5 -23 -2 -5 3 -10 1 -10 -4 0 -6 -9 -11 -20 -11 -11 0 -20 -4 -20 -9 0 -6 -9
-8 -20 -6 -11 2 -20 0 -20 -6 0 -5 -3 -8 -7 -7 -8 3 -66 -17 -95 -33 -10 -5
-27 -9 -37 -9 -11 0 -22 -4 -25 -9 -5 -8 -64 -25 -78 -22 -5 0 -8 -4 -8 -11 0
-6 -3 -8 -6 -5 -4 3 -16 1 -28 -5 -11 -7 -25 -11 -30 -10 -4 2 -14 -3 -22 -9
-8 -6 -14 -9 -14 -6 0 3 -12 0 -27 -8 -15 -8 -30 -12 -35 -9 -4 3 -8 1 -8 -4
0 -5 -6 -9 -12 -9 -7 0 -37 -10 -65 -22 -29 -11 -53 -18 -53 -14 0 3 -9 -2
-20 -12 -11 -10 -20 -16 -20 -12 0 3 -44 -11 -97 -30 -54 -20 -104 -36 -110
-36 -7 0 -13 -4 -13 -9 0 -4 -9 -8 -20 -8 -12 0 -34 -7 -49 -15 -16 -8 -31
-11 -35 -8 -3 4 -6 2 -6 -4 0 -5 -6 -10 -12 -11 -23 -2 -43 -7 -55 -15 -7 -5
-13 -5 -13 0 0 4 -4 3 -8 -4 -4 -6 -19 -14 -32 -17 -14 -3 -48 -14 -76 -25
-29 -11 -54 -17 -58 -14 -12 13 -14 -69 -1 -86 8 -12 7 -13 -4 -6 -11 6 -12 5
-5 -6 10 -16 10 -20 19 -103 13 -130 15 -152 20 -191 10 -72 15 -119 20 -170
2 -27 4 -50 5 -50 1 0 4 -18 6 -40 11 -105 12 -120 14 -120 1 0 3 -16 5 -35 7
-87 16 -167 21 -195 2 -16 6 -48 7 -70 1 -22 6 -43 12 -47 6 -5 5 -8 -4 -8 -9
0 -10 -4 -4 -12 6 -7 10 -20 11 -28 0 -8 3 -42 6 -75 4 -33 8 -72 8 -87 1 -16
6 -28 11 -28 5 0 4 -7 -3 -15 -10 -12 -10 -15 1 -15 12 0 12 -2 0 -9 -9 -6
-10 -11 -2 -15 6 -4 9 -20 7 -36 -2 -16 -1 -32 2 -35 3 -3 7 -18 8 -33 2 -15
5 -49 9 -77 10 -88 17 -159 18 -187 0 -16 4 -28 9 -28 4 0 5 -6 2 -14 -7 -17
29 -56 52 -56 8 0 13 -4 10 -9 -3 -4 13 -14 34 -21 22 -7 40 -16 40 -19 0 -3
15 -12 33 -20 17 -8 34 -17 37 -20 3 -3 28 -17 55 -31 28 -14 53 -29 57 -35 5
-6 8 -6 8 -1 0 6 7 1 15 -10 8 -10 15 -15 15 -10 0 4 11 1 25 -8 13 -9 44 -27
67 -40 24 -13 66 -36 93 -51 28 -15 84 -46 125 -68 41 -22 78 -44 81 -49 3 -5
12 -10 20 -12 8 -1 25 -8 39 -16 14 -8 28 -13 33 -12 4 1 7 -1 7 -6 0 -4 17
-16 38 -27 20 -10 49 -28 65 -38 15 -10 27 -15 27 -10 0 4 4 3 8 -3 4 -6 21
-17 37 -25 17 -9 60 -32 97 -52 61 -34 98 -40 98 -16 0 5 7 9 15 9 8 0 15 5
15 11 0 5 4 8 9 5 4 -3 23 6 41 19 18 13 37 22 41 19 5 -3 9 0 9 5 0 6 5 11
11 11 6 0 24 9 40 21 16 11 29 17 29 12 0 -4 4 -3 8 2 4 6 18 16 32 23 14 7
34 18 45 25 32 20 89 51 98 53 4 1 12 2 19 3 6 0 9 4 5 7 -3 3 38 28 91 56 53
27 102 56 108 64 6 7 14 11 17 8 3 -4 19 2 34 12 44 29 65 41 113 65 25 13 47
25 50 28 3 3 19 13 35 21 17 8 51 27 77 42 25 14 49 24 52 21 3 -4 6 -1 6 5 0
7 15 18 34 26 18 8 37 19 40 25 4 6 12 9 17 6 5 -4 9 -1 9 4 0 6 3 10 8 9 20
-4 40 15 37 38 -1 13 1 24 4 24 3 0 8 24 10 53 5 81 6 91 12 102 3 6 5 31 4
58 0 26 2 47 5 47 4 0 6 10 6 23 1 12 5 54 9 92 4 39 9 84 11 100 2 17 6 50 8
75 3 25 8 65 10 88 3 24 7 59 10 77 3 19 8 65 12 102 3 37 8 82 10 98 3 17 7
44 9 60 1 17 6 62 11 100 4 39 8 82 8 98 1 15 3 27 6 27 3 0 6 25 5 56 0 31 3
57 6 59 5 4 11 67 13 128 0 15 3 27 7 27 4 0 6 15 5 33 -2 17 1 37 6 44 5 7 5
14 -2 18 -6 3 -7 12 -3 18 9 14 11 26 17 92 3 28 5 50 6 50 1 0 3 17 5 37 2
32 -1 37 -24 44 -14 4 -29 7 -33 6 -5 -1 -8 3 -8 10 0 6 -3 9 -6 5 -5 -4 -82
20 -154 50 -8 3 -24 8 -34 10 -11 2 -24 7 -30 12 -6 4 -39 16 -73 26 -35 11
-63 23 -63 28 0 5 -8 6 -17 3 -9 -4 -19 -2 -23 3 -3 6 -15 12 -25 14 -11 2
-28 7 -37 10 -28 11 -48 16 -54 16 -3 0 -16 7 -30 15 -13 9 -24 14 -24 11 0
-4 -18 2 -95 31 -11 4 -23 6 -27 6 -5 -1 -8 3 -8 8 0 6 -6 10 -12 9 -7 -1 -22
1 -33 5 -116 44 -198 71 -204 67 -2 -2 -7 2 -10 8 -4 6 -16 12 -26 14 -11 2
-28 7 -37 11 -9 4 -22 9 -30 10 -7 2 -26 8 -43 15 -16 7 -38 13 -47 14 -10 1
-18 5 -18 9 0 4 -9 8 -19 8 -11 0 -22 4 -26 10 -3 5 -12 7 -20 3 -8 -3 -15 0
-15 6 0 6 -11 11 -24 11 -14 0 -27 4 -31 9 -7 12 -61 11 -73 -1z"/>
</g>
</svg>
